# xmcd
#
# Track frame offsets:
#	150
#	16530
#	36892
#	52240
#	66717
#	79800
#	103075
#	127220
#	141480
#
# Disc length: 2113 seconds
#
# Revision: 1
# Processed by: cddbd v1.4PL0 Copyright (c) Steve Scherf et al.
# Submitted via: audiograbber 1.81.03
#
DISCID=89083f09
DTITLE=Al Green - He Is The Light
DYEAR=1900
DGENRE=
TTITLE0=Going Away
TTITLE1=True Love
TTITLE2=He Is The Light
TTITLE3=I Feel Like Going On
TTITLE4=Be With Me Jesus
TTITLE5=You Brought The Sunshine
TTITLE6=Power
TTITLE7=Building Up
TTITLE8=Nearer My God To Thee
EXTD=
EXTT0=
EXTT1=
EXTT2=
EXTT3=
EXTT4=
EXTT5=
EXTT6=
EXTT7=
EXTT8=
PLAYORDER=
